{"title":"Highway.2014.DVDRip.x264.Hindi.ESubs-ViZNU [P2PDL]","uid":10049357,"size":479057237,"categoryP":"video","categoryS":"movies","magnet":"?xt=urn:btih:a8d2e22077a44320065ca7cb7c769090d3b9081d&amp;dn=Highway.2014.DVDRip.x264.Hindi.ESubs-ViZNU+%5BP2PDL%5D&amp;tr=udp%3A%2F%2Ftracker.openbittorrent.com%3A80&amp;tr=udp%3A%2F%2Fopen.demonii.com%3A1337&amp;tr=udp%3A%2F%2Ftracker.coppersurfer.tk%3A6969&amp;tr=udp%3A%2F%2Fexodus.desync.com%3A6969","seeders":3,"leechers":0,"uploader":"ValidusVyto","files":-1,"time":1398591002,"description":"Highway.2014.DVDRip.x264.Hindi.ESubs-ViZNU\n\n\nGenre: Drama | Romance  &lt;a href=&quot;\nhttp://www.imdb.com/title/tt2980794/&quot; rel=&quot;nofollow&quot; target=&quot;_NEW&quot;&gt;\nhttp://www.imdb.com/title/tt2980794/&lt;/a&gt;\n\n\nFormat                         : MPEG-4\nFile size                      : 452 MiB\nDuration                       : 2h 13mn\nOverall bit rate               : 475 Kbps\n\nVideo\nFormat                         : AVC\nBit rate                       : 432 Kbps\nWidth                          : 656 pixels\nHeight                         : 256 pixels\nDisplay aspect ratio           : 2.563\nFrame rate mode                : Constant\nFrame rate                     : 25.000 fps\nBit depth                      : 8 bits\nStream size                    : 411 MiB (91%)\nWriting library                : x264 core 142 r2431 ac76440\n\nAudio\nFormat                         : AAC\nBit rate                       : 39.9 Kbps\nChannel count                  : 2 channels\nChannel positions              : Front: L R\nSampling rate                  : 48.0 KHz\nStream size                    : 38.0 MiB (8%)\nLanguage                       : Hindi\n\nSubtitle                       : Yes (English)\n &lt;a href=&quot;\nhttp://i.imgur.com/vmGKoYo.png&quot; rel=&quot;nofollow&quot; target=&quot;_NEW&quot;&gt;\nhttp://i.imgur.com/vmGKoYo.png&lt;/a&gt; &lt;a href=&quot;\nhttp://i.imgur.com/iigik4m.png&quot; rel=&quot;nofollow&quot; target=&quot;_NEW&quot;&gt;\nhttp://i.imgur.com/iigik4m.png&lt;/a&gt; &lt;a href=&quot;\nhttp://i.imgur.com/i0Be3As.png&quot; rel=&quot;nofollow&quot; target=&quot;_NEW&quot;&gt;\nhttp://i.imgur.com/i0Be3As.png&lt;/a&gt; &lt;a href=&quot;\nhttp://i.imgur.com/YPbOaKi.png&quot; rel=&quot;nofollow&quot; target=&quot;_NEW&quot;&gt;\nhttp://i.imgur.com/YPbOaKi.png&lt;/a&gt; &lt;a href=&quot;\nhttp://i.imgur.com/rSKDb1s.png&quot; rel=&quot;nofollow&quot; target=&quot;_NEW&quot;&gt;\nhttp://i.imgur.com/rSKDb1s.png&lt;/a&gt;\n\n----------------------------------------------------------------------------------------------------\n\n\nRecommend to you to use latest version of VLC player. Install K-Lite Codec Pack or shark007 codecs\nin case of any kind of problem in playback (For non-VLC Media Player users). Alternatively, install\nCore AVC codecs, the fastest decoder that there is coupled with Community Center Codec Pack and play\non Windows Media Player Classic. Check sample to be sure.\n\nEncoder Notes:Looking For Early Access To Anything You Can Provide DVDScr, R5, DVDR, BluRay, Direct\nAudio, Music Releases and Seedboxes. We require dedicated servers, so as to do more \nand fast releases of movies.\n\n\nEncode by ViZNU @ P2PDL","torrent":{"xt":"urn:btih:a8d2e22077a44320065ca7cb7c769090d3b9081d","amp;dn":"Highway.2014.DVDRip.x264.Hindi.ESubs-ViZNU+%5BP2PDL%5D","amp;tr":["udp%3A%2F%2Ftracker.openbittorrent.com%3A80","udp%3A%2F%2Fopen.demonii.com%3A1337","udp%3A%2F%2Ftracker.coppersurfer.tk%3A6969","udp%3A%2F%2Fexodus.desync.com%3A6969"],"infoHash":"a8d2e22077a44320065ca7cb7c769090d3b9081d","infoHashBuffer":{"type":"Buffer","data":[168,210,226,32,119,164,67,32,6,92,167,203,124,118,144,144,211,185,8,29]},"announce":[],"urlList":[]}}